# xmcd
#
# Track frame offsets:
#	150
#	18512
#	38738
#	56699
#	73591
#	92685
#	110431
#	128556
#	150415
#	169189
#
# Disc length: 2510 seconds
#
# Revision: 0
# Processed by: cddbd v1.5.2PL0 Copyright (c) Steve Scherf et al.
# Submitted via: audiograbber 1.83.01
#
DISCID=7809cc0a
DTITLE=Aneka - Japanese Boy
DYEAR=1981
DGENRE=Pop
TTITLE0=Ooh Shooby Doo Doo Lang
TTITLE1=Tuwhit Tuwhoo
TTITLE2=Japanese Boy
TTITLE3=Put Out The Light
TTITLE4=Come Back To Me
TTITLE5=Ahriman
TTITLE6=It'll Be All Right
TTITLE7=Be My Only Karma
TTITLE8=I Was Free
TTITLE9=Little Lady
EXTD=
EXTT0=
EXTT1=
EXTT2=
EXTT3=
EXTT4=
EXTT5=
EXTT6=
EXTT7=
EXTT8=
EXTT9=
PLAYORDER=
